<svg xmlns="http://www.w3.org/2000/svg" id="Layer_2" viewBox="0 0 180 56.8"><defs><style>.cls-1{fill:#fff;}</style></defs><g id="Layer_1-2"><path class="cls-1" d="M52.18,15.02c-9.98,0-18.07,8.09-18.07,18.07s11.7,23.4,18.07,23.4,18.07-13.42,18.07-23.4-8.09-18.07-18.07-18.07ZM54.4,36.74v5.73c0,1.23-.99,2.22-2.22,2.22s-2.22-.99-2.22-2.22v-5.73c-1.97-.86-3.35-2.81-3.35-5.09,0-3.07,2.49-5.57,5.57-5.57s5.57,2.49,5.57,5.57c0,2.28-1.38,4.23-3.35,5.09Z"></path><path class="cls-1" d="M0,0h10.09v46.87h24.02v8.68H0V0Z"></path><path class="cls-1" d="M96.64,15.02c10.41,0,15.34,5.95,15.34,5.95l-4.38,6.81s-4.15-4.3-10.41-4.3c-7.36,0-12.13,5.55-12.13,12.36s4.85,12.52,12.44,12.52c6.73,0,11.74-5.08,11.74-5.08l3.83,7.04s-5.71,6.49-16.43,6.49c-13.22,0-21.67-9.31-21.67-20.89s8.45-20.89,21.67-20.89Z"></path><path class="cls-1" d="M117.79,0h10.09v55.55h-10.09V0Z"></path><path class="cls-1" d="M132.74,0h18.93c17.14,0,28.33,10.17,28.33,27.7s-11.19,27.85-28.33,27.85h-18.93V0ZM151.13,46.87c11.27,0,18.47-6.65,18.47-19.17s-7.36-19.01-18.47-19.01h-8.29v38.18h8.29Z"></path></g></svg>